<svg width="234" height="303" viewBox="0 0 234 303" fill="none" xmlns="http://www.w3.org/2000/svg">
<path d="M2.71401 239.501C-2.03766 232.715 -0.388439 223.361 6.39764 218.61L170.588 103.642C177.375 98.8904 186.728 100.54 191.479 107.326L230.919 163.651C235.67 170.437 234.021 179.79 227.235 184.542L63.044 299.509C56.258 304.261 46.9048 302.612 42.1531 295.826L2.71401 239.501Z" fill="black"/>
<path fill-rule="evenodd" clip-rule="evenodd" d="M167.685 14.7161C173.093 14.7161 178.298 13.8468 183.168 12.2402C191.135 9.61169 200.649 10.9337 205.462 17.8064L216.849 34.0695C221.601 40.8555 219.952 50.2087 213.166 54.9604L48.9747 169.928C42.1886 174.68 32.8354 173.031 28.0838 166.244L16.7343 150.036C11.9616 143.22 13.8943 133.911 19.0099 127.348C25.5343 118.978 29.421 108.451 29.421 97.0161C29.421 91.9389 28.6547 87.0406 27.2315 82.4307C24.8039 74.5672 26.2138 65.3017 32.9551 60.5814L115.569 2.73462C122.279 -1.96383 131.423 -0.16469 137.96 4.77093C146.23 11.014 156.525 14.7161 167.685 14.7161Z" fill="black"/>
</svg>
