<svg width="407" height="403" viewBox="0 0 407 403" fill="none" xmlns="http://www.w3.org/2000/svg">
<path d="M23.5233 384.9C19.3233 384.9 15.2983 384.35 11.4483 383.25C7.59834 382.1 4.49834 380.625 2.14834 378.825L6.27334 369.675C8.52334 371.275 11.1733 372.6 14.2233 373.65C17.3233 374.65 20.4483 375.15 23.5983 375.15C25.9983 375.15 27.9233 374.925 29.3733 374.475C30.8733 373.975 31.9733 373.3 32.6733 372.45C33.3733 371.6 33.7233 370.625 33.7233 369.525C33.7233 368.125 33.1733 367.025 32.0733 366.225C30.9733 365.375 29.5233 364.7 27.7233 364.2C25.9233 363.65 23.9233 363.15 21.7233 362.7C19.5733 362.2 17.3983 361.6 15.1983 360.9C13.0483 360.2 11.0733 359.3 9.27334 358.2C7.47334 357.1 5.99834 355.65 4.84834 353.85C3.74834 352.05 3.19834 349.75 3.19834 346.95C3.19834 343.95 3.99834 341.225 5.59834 338.775C7.24834 336.275 9.69834 334.3 12.9483 332.85C16.2483 331.35 20.3733 330.6 25.3233 330.6C28.6233 330.6 31.8733 331 35.0733 331.8C38.2733 332.55 41.0983 333.7 43.5483 335.25L39.7983 344.475C37.3483 343.075 34.8983 342.05 32.4483 341.4C29.9983 340.7 27.5983 340.35 25.2483 340.35C22.8983 340.35 20.9733 340.625 19.4733 341.175C17.9733 341.725 16.8983 342.45 16.2483 343.35C15.5983 344.2 15.2733 345.2 15.2733 346.35C15.2733 347.7 15.8233 348.8 16.9233 349.65C18.0233 350.45 19.4733 351.1 21.2733 351.6C23.0733 352.1 25.0483 352.6 27.1983 353.1C29.3983 353.6 31.5733 354.175 33.7233 354.825C35.9233 355.475 37.9233 356.35 39.7233 357.45C41.5233 358.55 42.9733 360 44.0733 361.8C45.2233 363.6 45.7983 365.875 45.7983 368.625C45.7983 371.575 44.9733 374.275 43.3233 376.725C41.6733 379.175 39.1983 381.15 35.8983 382.65C32.6483 384.15 28.5233 384.9 23.5233 384.9ZM63.1005 384V331.5H85.8255C90.5255 331.5 94.5755 332.275 97.9755 333.825C101.375 335.325 104 337.5 105.85 340.35C107.7 343.2 108.625 346.6 108.625 350.55C108.625 354.45 107.7 357.825 105.85 360.675C104 363.525 101.375 365.725 97.9755 367.275C94.5755 368.775 90.5255 369.525 85.8255 369.525H69.8505L75.2505 364.05V384H63.1005ZM75.2505 365.4L69.8505 359.625H85.1505C88.9005 359.625 91.7005 358.825 93.5505 357.225C95.4005 355.625 96.3255 353.4 96.3255 350.55C96.3255 347.65 95.4005 345.4 93.5505 343.8C91.7005 342.2 88.9005 341.4 85.1505 341.4H69.8505L75.2505 335.625V365.4ZM126.3 384V331.5H149.025C153.725 331.5 157.775 332.275 161.175 333.825C164.575 335.325 167.2 337.5 169.05 340.35C170.9 343.2 171.825 346.6 171.825 350.55C171.825 354.45 170.9 357.825 169.05 360.675C167.2 363.475 164.575 365.625 161.175 367.125C157.775 368.625 153.725 369.375 149.025 369.375H133.05L138.45 364.05V384H126.3ZM159.675 384L146.55 364.95H159.525L172.8 384H159.675ZM138.45 365.4L133.05 359.7H148.35C152.1 359.7 154.9 358.9 156.75 357.3C158.6 355.65 159.525 353.4 159.525 350.55C159.525 347.65 158.6 345.4 156.75 343.8C154.9 342.2 152.1 341.4 148.35 341.4H133.05L138.45 335.625V365.4ZM190.451 384V331.5H202.601V384H190.451ZM224.06 384V331.5H234.11L265.085 369.3H260.21V331.5H272.21V384H262.235L231.185 346.2H236.06V384H224.06ZM318.982 384.9C314.832 384.9 311.007 384.25 307.507 382.95C304.057 381.6 301.032 379.7 298.432 377.25C295.882 374.8 293.882 371.925 292.432 368.625C291.032 365.325 290.332 361.7 290.332 357.75C290.332 353.8 291.032 350.175 292.432 346.875C293.882 343.575 295.907 340.7 298.507 338.25C301.107 335.8 304.157 333.925 307.657 332.625C311.157 331.275 315.007 330.6 319.207 330.6C323.857 330.6 328.032 331.375 331.732 332.925C335.482 334.475 338.632 336.725 341.182 339.675L333.382 346.875C331.482 344.875 329.407 343.4 327.157 342.45C324.907 341.45 322.457 340.95 319.807 340.95C317.257 340.95 314.932 341.35 312.832 342.15C310.732 342.95 308.907 344.1 307.357 345.6C305.857 347.1 304.682 348.875 303.832 350.925C303.032 352.975 302.632 355.25 302.632 357.75C302.632 360.2 303.032 362.45 303.832 364.5C304.682 366.55 305.857 368.35 307.357 369.9C308.907 371.4 310.707 372.55 312.757 373.35C314.857 374.15 317.157 374.55 319.657 374.55C322.057 374.55 324.382 374.175 326.632 373.425C328.932 372.625 331.157 371.3 333.307 369.45L340.207 378.225C337.357 380.375 334.032 382.025 330.232 383.175C326.482 384.325 322.732 384.9 318.982 384.9ZM329.107 376.65V356.925H340.207V378.225L329.107 376.65ZM373.543 384V362.55L376.318 369.9L353.218 331.5H366.118L383.818 360.975H376.393L394.168 331.5H406.093L382.993 369.9L385.693 362.55V384H373.543Z" fill="black"/>
<path d="M109.953 243.32C105.202 236.534 106.851 227.18 113.637 222.429L277.828 107.461C284.614 102.709 293.967 104.359 298.719 111.145L338.158 167.47C342.91 174.256 341.26 183.609 334.474 188.36L170.283 303.328C163.497 308.08 154.144 306.431 149.393 299.645L109.953 243.32Z" fill="black"/>
<path fill-rule="evenodd" clip-rule="evenodd" d="M274.924 18.535C280.332 18.535 285.537 17.6657 290.407 16.0591C298.375 13.4306 307.889 14.7526 312.701 21.6253L324.089 37.8884C328.84 44.6744 327.191 54.0276 320.405 58.7793L156.214 173.747C149.428 178.499 140.075 176.849 135.323 170.063L123.974 153.855C119.201 147.038 121.134 137.73 126.249 131.167C132.774 122.797 136.66 112.27 136.66 100.835C136.66 95.7578 135.894 90.8595 134.471 86.2496C132.043 78.3861 133.453 69.1206 140.195 64.4003L222.808 6.55352C229.518 1.85506 238.662 3.6542 245.2 8.58982C253.469 14.8329 263.764 18.535 274.924 18.535Z" fill="black"/>
</svg>
