<svg width="403" height="398" viewBox="0 0 403 398" fill="none" xmlns="http://www.w3.org/2000/svg">
<path d="M23.3748 379.75C19.2748 379.75 15.3498 379.175 11.5998 378.025C7.84981 376.825 4.8748 375.3 2.6748 373.45L6.04981 365.875C8.14981 367.525 10.7498 368.9 13.8498 370C16.9498 371.1 20.1248 371.65 23.3748 371.65C26.1248 371.65 28.3498 371.35 30.0498 370.75C31.7498 370.15 32.9998 369.35 33.7998 368.35C34.5998 367.3 34.9998 366.125 34.9998 364.825C34.9998 363.225 34.4248 361.95 33.2748 361C32.1248 360 30.6248 359.225 28.7748 358.675C26.9748 358.075 24.9498 357.525 22.6998 357.025C20.4998 356.525 18.2748 355.95 16.0248 355.3C13.8248 354.6 11.7998 353.725 9.9498 352.675C8.1498 351.575 6.6748 350.125 5.52481 348.325C4.3748 346.525 3.7998 344.225 3.7998 341.425C3.7998 338.575 4.5498 335.975 6.04981 333.625C7.59981 331.225 9.92481 329.325 13.0248 327.925C16.1748 326.475 20.1498 325.75 24.9498 325.75C28.0998 325.75 31.2248 326.15 34.3248 326.95C37.4248 327.75 40.1248 328.9 42.4248 330.4L39.3498 337.975C36.9998 336.575 34.5748 335.55 32.0748 334.9C29.5748 334.2 27.1748 333.85 24.8748 333.85C22.1748 333.85 19.9748 334.175 18.2748 334.825C16.6248 335.475 15.3998 336.325 14.5998 337.375C13.8498 338.425 13.4748 339.625 13.4748 340.975C13.4748 342.575 14.0248 343.875 15.1248 344.875C16.2748 345.825 17.7498 346.575 19.5498 347.125C21.3998 347.675 23.4498 348.225 25.6998 348.775C27.9498 349.275 30.1748 349.85 32.3748 350.5C34.6248 351.15 36.6498 352 38.4498 353.05C40.2998 354.1 41.7748 355.525 42.8748 357.325C44.0248 359.125 44.5998 361.4 44.5998 364.15C44.5998 366.95 43.8248 369.55 42.2748 371.95C40.7748 374.3 38.4498 376.2 35.2998 377.65C32.1498 379.05 28.1748 379.75 23.3748 379.75ZM63.2678 379V326.5H84.8678C89.5178 326.5 93.4928 327.25 96.7928 328.75C100.143 330.25 102.718 332.4 104.518 335.2C106.318 338 107.218 341.325 107.218 345.175C107.218 349.025 106.318 352.35 104.518 355.15C102.718 357.95 100.143 360.1 96.7928 361.6C93.4928 363.1 89.5178 363.85 84.8678 363.85H68.6678L73.0178 359.275V379H63.2678ZM73.0178 360.325L68.6678 355.6H84.4178C88.7178 355.6 91.9428 354.7 94.0928 352.9C96.2928 351.05 97.3928 348.475 97.3928 345.175C97.3928 341.825 96.2928 339.25 94.0928 337.45C91.9428 335.65 88.7178 334.75 84.4178 334.75H68.6678L73.0178 329.95V360.325ZM125.954 379V326.5H147.554C152.204 326.5 156.179 327.25 159.479 328.75C162.829 330.25 165.404 332.4 167.204 335.2C169.004 338 169.904 341.325 169.904 345.175C169.904 349.025 169.004 352.35 167.204 355.15C165.404 357.9 162.829 360.025 159.479 361.525C156.179 362.975 152.204 363.7 147.554 363.7H131.354L135.704 359.275V379H125.954ZM160.304 379L147.029 359.95H157.454L170.804 379H160.304ZM135.704 360.325L131.354 355.675H147.104C151.404 355.675 154.629 354.75 156.779 352.9C158.979 351.05 160.079 348.475 160.079 345.175C160.079 341.825 158.979 339.25 156.779 337.45C154.629 335.65 151.404 334.75 147.104 334.75H131.354L135.704 329.95V360.325ZM189.813 379V326.5H199.563V379H189.813ZM222.763 379V326.5H230.788L263.713 366.925H259.738V326.5H269.413V379H261.388L228.463 338.575H232.438V379H222.763ZM317.006 379.75C312.906 379.75 309.131 379.1 305.681 377.8C302.281 376.45 299.306 374.575 296.756 372.175C294.206 369.725 292.231 366.85 290.831 363.55C289.431 360.25 288.731 356.65 288.731 352.75C288.731 348.85 289.431 345.25 290.831 341.95C292.231 338.65 294.206 335.8 296.756 333.4C299.356 330.95 302.381 329.075 305.831 327.775C309.281 326.425 313.056 325.75 317.156 325.75C321.606 325.75 325.606 326.475 329.156 327.925C332.756 329.375 335.781 331.5 338.231 334.3L332.081 340.3C330.031 338.25 327.806 336.75 325.406 335.8C323.056 334.8 320.456 334.3 317.606 334.3C314.856 334.3 312.306 334.75 309.956 335.65C307.606 336.55 305.581 337.825 303.881 339.475C302.181 341.125 300.856 343.075 299.906 345.325C299.006 347.575 298.556 350.05 298.556 352.75C298.556 355.4 299.006 357.85 299.906 360.1C300.856 362.35 302.181 364.325 303.881 366.025C305.581 367.675 307.581 368.95 309.881 369.85C312.181 370.75 314.731 371.2 317.531 371.2C320.131 371.2 322.631 370.8 325.031 370C327.481 369.15 329.806 367.75 332.006 365.8L337.556 373.075C334.806 375.275 331.606 376.95 327.956 378.1C324.356 379.2 320.706 379.75 317.006 379.75ZM328.331 371.8V352.15H337.556V373.075L328.331 371.8ZM372.315 379V358.225L374.49 364.225L351.69 326.5H362.115L380.415 356.875H374.565L393.015 326.5H402.615L379.815 364.225L382.065 358.225V379H372.315Z" fill="white"/>
<path d="M109.954 240.32C105.202 233.534 106.851 224.18 113.637 219.429L277.828 104.461C284.614 99.7093 293.967 101.359 298.719 108.145L338.158 164.47C342.91 171.256 341.26 180.609 334.474 185.36L170.284 300.328C163.497 305.08 154.144 303.431 149.393 296.644L109.954 240.32Z" fill="white"/>
<path fill-rule="evenodd" clip-rule="evenodd" d="M274.924 15.535C280.332 15.535 285.537 14.6657 290.407 13.0591C298.375 10.4306 307.889 11.7526 312.701 18.6253L324.089 34.8884C328.84 41.6744 327.191 51.0276 320.405 55.7793L156.214 170.747C149.428 175.499 140.075 173.849 135.323 167.063L123.974 150.855C119.201 144.038 121.134 134.73 126.249 128.167C132.774 119.797 136.66 109.27 136.66 97.835C136.66 92.7578 135.894 87.8595 134.471 83.2496C132.043 75.3861 133.453 66.1206 140.195 61.4003L222.808 3.55352C229.518 -1.14494 238.662 0.654204 245.2 5.58982C253.469 11.8329 263.764 15.535 274.924 15.535Z" fill="white"/>
</svg>
